<?xml version="1.0" standalone="no"?>
<svg xmlns="http://www.w3.org/2000/svg" xmlns:xlink="http://www.w3.org/1999/xlink" width="226pt" height="354pt" viewBox="0.00 0.00 226.39 353.55">
<g id="graph0" class="graph" transform="translate(37.29341123067729,323.0898607491413) scale(0.8009004438116254)" data-name="ArvoreBinaria">

<polygon fill="white" stroke="none" points="-4,4 -4,-349.55 222.39,-349.55 222.39,4 -4,4" style=""/>
<!-- 8 -->
<g id="node1" class="node" pointer-events="visible" data-name="8">

<ellipse fill="#9370db" stroke="black" cx="108.69" cy="-327.55" rx="18" ry="18" style=""/>
<text text-anchor="middle" x="108.69" y="-323.35" font-family="Times,serif" font-size="14.00">8</text>
</g>
<!-- 50 -->
<g id="node2" class="node" pointer-events="visible" data-name="50">

<ellipse fill="#9370db" stroke="black" cx="108.69" cy="-252.85" rx="20.89" ry="20.89" style=""/>
<text text-anchor="middle" x="108.69" y="-248.65" font-family="Times,serif" font-size="14.00">50</text>
</g>
<!-- 8&#45;&gt;50 -->
<g id="edge1" class="edge" data-name="8-&gt;50">

<path fill="none" stroke="black" d="M108.69,-309.32C108.69,-302.13 108.69,-293.54 108.69,-285.3" style=""/>
<polygon fill="black" stroke="black" points="112.19,-285.57 108.69,-275.57 105.19,-285.57 112.19,-285.57" style=""/>
</g>
<!-- 31 -->
<g id="node3" class="node" pointer-events="visible" data-name="31">

<ellipse fill="#9370db" stroke="black" cx="79.69" cy="-175.47" rx="20.89" ry="20.89" style=""/>
<text text-anchor="middle" x="79.69" y="-171.27" font-family="Times,serif" font-size="14.00">31</text>
</g>
<!-- 50&#45;&gt;31 -->
<g id="edge2" class="edge" data-name="50-&gt;31">

<path fill="none" stroke="black" d="M101.38,-232.83C98.25,-224.71 94.53,-215.03 91.06,-206.01" style=""/>
<polygon fill="black" stroke="black" points="94.41,-204.97 87.55,-196.9 87.88,-207.49 94.41,-204.97" style=""/>
</g>
<!-- 74 -->
<g id="node4" class="node" pointer-events="visible" data-name="74">

<ellipse fill="#9370db" stroke="black" cx="138.69" cy="-175.47" rx="20.89" ry="20.89" style=""/>
<text text-anchor="middle" x="138.69" y="-171.27" font-family="Times,serif" font-size="14.00">74</text>
</g>
<!-- 50&#45;&gt;74 -->
<g id="edge3" class="edge" data-name="50-&gt;74">

<path fill="none" stroke="black" d="M116.11,-233.22C119.37,-225.04 123.27,-215.23 126.91,-206.08" style=""/>
<polygon fill="black" stroke="black" points="130.15,-207.4 130.6,-196.82 123.65,-204.81 130.15,-207.4" style=""/>
</g>
<!-- 24 -->
<g id="node5" class="node" pointer-events="visible" data-name="24">

<ellipse fill="#9370db" stroke="black" cx="20.69" cy="-98.08" rx="20.89" ry="20.89" style=""/>
<text text-anchor="middle" x="20.69" y="-93.88" font-family="Times,serif" font-size="14.00">24</text>
</g>
<!-- 31&#45;&gt;24 -->
<g id="edge4" class="edge" data-name="31-&gt;24">

<path fill="none" stroke="black" d="M67.18,-158.48C59.36,-148.48 49.12,-135.4 40.24,-124.06" style=""/>
<polygon fill="black" stroke="black" points="43.04,-121.95 34.12,-116.24 37.53,-126.27 43.04,-121.95" style=""/>
</g>
<!-- 45 -->
<g id="node6" class="node" pointer-events="visible" data-name="45">

<ellipse fill="#9370db" stroke="black" cx="79.69" cy="-98.08" rx="20.89" ry="20.89" style=""/>
<text text-anchor="middle" x="79.69" y="-93.88" font-family="Times,serif" font-size="14.00">45</text>
</g>
<!-- 31&#45;&gt;45 -->
<g id="edge5" class="edge" data-name="31-&gt;45">

<path fill="none" stroke="black" d="M79.69,-154.26C79.69,-147 79.69,-138.62 79.69,-130.61" style=""/>
<polygon fill="black" stroke="black" points="83.19,-130.85 79.69,-120.85 76.19,-130.85 83.19,-130.85" style=""/>
</g>
<!-- 59 -->
<g id="node8" class="node" pointer-events="visible" data-name="59">

<ellipse fill="#9370db" stroke="black" cx="138.69" cy="-98.08" rx="20.89" ry="20.89" style=""/>
<text text-anchor="middle" x="138.69" y="-93.88" font-family="Times,serif" font-size="14.00">59</text>
</g>
<!-- 74&#45;&gt;59 -->
<g id="edge7" class="edge" data-name="74-&gt;59">

<path fill="none" stroke="black" d="M138.69,-154.26C138.69,-147 138.69,-138.62 138.69,-130.61" style=""/>
<polygon fill="black" stroke="black" points="142.19,-130.85 138.69,-120.85 135.19,-130.85 142.19,-130.85" style=""/>
</g>
<!-- 79 -->
<g id="node9" class="node" pointer-events="visible" data-name="79">

<ellipse fill="#9370db" stroke="black" cx="197.69" cy="-98.08" rx="20.89" ry="20.89" style=""/>
<text text-anchor="middle" x="197.69" y="-93.88" font-family="Times,serif" font-size="14.00">79</text>
</g>
<!-- 74&#45;&gt;79 -->
<g id="edge8" class="edge" data-name="74-&gt;79">

<path fill="none" stroke="black" d="M151.21,-158.48C159.03,-148.48 169.27,-135.4 178.15,-124.06" style=""/>
<polygon fill="black" stroke="black" points="180.86,-126.27 184.27,-116.24 175.35,-121.95 180.86,-126.27" style=""/>
</g>
<!-- 10 -->
<g id="node7" class="node" pointer-events="visible" data-name="10">

<ellipse fill="#9370db" stroke="black" cx="20.69" cy="-20.69" rx="20.89" ry="20.89" style=""/>
<text text-anchor="middle" x="20.69" y="-16.49" font-family="Times,serif" font-size="14.00">10</text>
</g>
<!-- 24&#45;&gt;10 -->
<g id="edge6" class="edge" data-name="24-&gt;10">

<path fill="none" stroke="black" d="M20.69,-76.88C20.69,-69.61 20.69,-61.23 20.69,-53.23" style=""/>
<polygon fill="black" stroke="black" points="24.19,-53.47 20.69,-43.47 17.19,-53.47 24.19,-53.47" style=""/>
</g>
<!-- 73 -->
<g id="node10" class="node" pointer-events="visible" data-name="73">

<ellipse fill="#9370db" stroke="black" cx="138.69" cy="-20.69" rx="20.89" ry="20.89" style=""/>
<text text-anchor="middle" x="138.69" y="-16.49" font-family="Times,serif" font-size="14.00">73</text>
</g>
<!-- 59&#45;&gt;73 -->
<g id="edge9" class="edge" data-name="59-&gt;73">

<path fill="none" stroke="black" d="M138.69,-76.88C138.69,-69.61 138.69,-61.23 138.69,-53.23" style=""/>
<polygon fill="black" stroke="black" points="142.19,-53.47 138.69,-43.47 135.19,-53.47 142.19,-53.47" style=""/>
</g>
</g>
</svg>