<?xml version="1.0" standalone="no"?>
<svg xmlns="http://www.w3.org/2000/svg" xmlns:xlink="http://www.w3.org/1999/xlink" width="753pt" height="828pt" viewBox="0.00 0.00 753.39 827.53">
<g id="graph0" class="graph" transform="translate(207.8185629531319,688.077781855466) scale(0.8336209146846464)" data-name="ArvoreBinaria">

<polygon fill="white" stroke="none" points="-4,4 -4,-823.53 749.39,-823.53 749.39,4 -4,4" style=""/>
<!-- 8 -->
<g id="node1" class="node" pointer-events="visible" data-name="8">

<ellipse fill="#9370db" stroke="black" cx="197.69" cy="-801.53" rx="18" ry="18" style=""/>
<text text-anchor="middle" x="197.69" y="-797.33" font-family="Times,serif" font-size="14.00">8</text>
</g>
<!-- 4 -->
<g id="node2" class="node" pointer-events="visible" data-name="4">

<ellipse fill="#9370db" stroke="black" cx="169.69" cy="-726.83" rx="18" ry="18" style=""/>
<text text-anchor="middle" x="169.69" y="-722.63" font-family="Times,serif" font-size="14.00">4</text>
</g>
<!-- 8&#45;&gt;4 -->
<g id="edge1" class="edge" data-name="8-&gt;4">

<path fill="none" stroke="black" d="M191.48,-784.39C188.13,-775.7 183.91,-764.75 180.08,-754.8" style=""/>
<polygon fill="black" stroke="black" points="183.39,-753.66 176.53,-745.58 176.86,-756.17 183.39,-753.66" style=""/>
</g>
<!-- 50 -->
<g id="node3" class="node" pointer-events="visible" data-name="50">

<ellipse fill="#9370db" stroke="black" cx="226.69" cy="-726.83" rx="20.89" ry="20.89" style=""/>
<text text-anchor="middle" x="226.69" y="-722.63" font-family="Times,serif" font-size="14.00">50</text>
</g>
<!-- 8&#45;&gt;50 -->
<g id="edge2" class="edge" data-name="8-&gt;50">

<path fill="none" stroke="black" d="M204.13,-784.39C207.32,-776.4 211.27,-766.48 214.98,-757.2" style=""/>
<polygon fill="black" stroke="black" points="218.13,-758.74 218.59,-748.16 211.63,-756.15 218.13,-758.74" style=""/>
</g>
<!-- 2 -->
<g id="node4" class="node" pointer-events="visible" data-name="2">

<ellipse fill="#9370db" stroke="black" cx="115.69" cy="-649.45" rx="18" ry="18" style=""/>
<text text-anchor="middle" x="115.69" y="-645.25" font-family="Times,serif" font-size="14.00">2</text>
</g>
<!-- 4&#45;&gt;2 -->
<g id="edge3" class="edge" data-name="4-&gt;2">

<path fill="none" stroke="black" d="M159.54,-711.65C151.92,-701.02 141.32,-686.22 132.46,-673.85" style=""/>
<polygon fill="black" stroke="black" points="135.35,-671.88 126.69,-665.79 129.66,-675.96 135.35,-671.88" style=""/>
</g>
<!-- 6 -->
<g id="node5" class="node" pointer-events="visible" data-name="6">

<ellipse fill="#9370db" stroke="black" cx="169.69" cy="-649.45" rx="18" ry="18" style=""/>
<text text-anchor="middle" x="169.69" y="-645.25" font-family="Times,serif" font-size="14.00">6</text>
</g>
<!-- 4&#45;&gt;6 -->
<g id="edge4" class="edge" data-name="4-&gt;6">

<path fill="none" stroke="black" d="M169.69,-708.35C169.69,-699.69 169.69,-689.01 169.69,-679.19" style=""/>
<polygon fill="black" stroke="black" points="173.19,-679.35 169.69,-669.35 166.19,-679.35 173.19,-679.35" style=""/>
</g>
<!-- 31 -->
<g id="node7" class="node" pointer-events="visible" data-name="31">

<ellipse fill="#9370db" stroke="black" cx="226.69" cy="-649.45" rx="20.89" ry="20.89" style=""/>
<text text-anchor="middle" x="226.69" y="-645.25" font-family="Times,serif" font-size="14.00">31</text>
</g>
<!-- 50&#45;&gt;31 -->
<g id="edge6" class="edge" data-name="50-&gt;31">

<path fill="none" stroke="black" d="M226.69,-705.63C226.69,-698.36 226.69,-689.98 226.69,-681.98" style=""/>
<polygon fill="black" stroke="black" points="230.19,-682.22 226.69,-672.22 223.19,-682.22 230.19,-682.22" style=""/>
</g>
<!-- 74 -->
<g id="node8" class="node" pointer-events="visible" data-name="74">

<ellipse fill="#9370db" stroke="black" cx="403.69" cy="-649.45" rx="20.89" ry="20.89" style=""/>
<text text-anchor="middle" x="403.69" y="-645.25" font-family="Times,serif" font-size="14.00">74</text>
</g>
<!-- 50&#45;&gt;74 -->
<g id="edge7" class="edge" data-name="50-&gt;74">

<path fill="none" stroke="black" d="M245.97,-717.62C276.83,-704.48 337.53,-678.63 373.97,-663.11" style=""/>
<polygon fill="black" stroke="black" points="375.22,-666.38 383.05,-659.24 372.47,-659.94 375.22,-666.38" style=""/>
</g>
<!-- 5 -->
<g id="node6" class="node" pointer-events="visible" data-name="5">

<ellipse fill="#9370db" stroke="black" cx="140.69" cy="-572.06" rx="18" ry="18" style=""/>
<text text-anchor="middle" x="140.69" y="-567.86" font-family="Times,serif" font-size="14.00">5</text>
</g>
<!-- 6&#45;&gt;5 -->
<g id="edge5" class="edge" data-name="6-&gt;5">

<path fill="none" stroke="black" d="M163.4,-632.09C159.79,-622.7 155.17,-610.69 151.04,-599.95" style=""/>
<polygon fill="black" stroke="black" points="154.37,-598.87 147.52,-590.8 147.84,-601.39 154.37,-598.87" style=""/>
</g>
<!-- 24 -->
<g id="node9" class="node" pointer-events="visible" data-name="24">

<ellipse fill="#9370db" stroke="black" cx="197.69" cy="-572.06" rx="20.89" ry="20.89" style=""/>
<text text-anchor="middle" x="197.69" y="-567.86" font-family="Times,serif" font-size="14.00">24</text>
</g>
<!-- 31&#45;&gt;24 -->
<g id="edge8" class="edge" data-name="31-&gt;24">

<path fill="none" stroke="black" d="M219.38,-629.42C216.25,-621.3 212.53,-611.62 209.06,-602.61" style=""/>
<polygon fill="black" stroke="black" points="212.41,-601.57 205.55,-593.49 205.88,-604.08 212.41,-601.57" style=""/>
</g>
<!-- 45 -->
<g id="node10" class="node" pointer-events="visible" data-name="45">

<ellipse fill="#9370db" stroke="black" cx="256.69" cy="-572.06" rx="20.89" ry="20.89" style=""/>
<text text-anchor="middle" x="256.69" y="-567.86" font-family="Times,serif" font-size="14.00">45</text>
</g>
<!-- 31&#45;&gt;45 -->
<g id="edge9" class="edge" data-name="31-&gt;45">

<path fill="none" stroke="black" d="M234.11,-629.81C237.37,-621.63 241.27,-611.82 244.91,-602.67" style=""/>
<polygon fill="black" stroke="black" points="248.15,-603.99 248.6,-593.41 241.65,-601.41 248.15,-603.99" style=""/>
</g>
<!-- 59 -->
<g id="node36" class="node" pointer-events="visible" data-name="59">

<ellipse fill="#9370db" stroke="black" cx="403.69" cy="-572.06" rx="20.89" ry="20.89" style=""/>
<text text-anchor="middle" x="403.69" y="-567.86" font-family="Times,serif" font-size="14.00">59</text>
</g>
<!-- 74&#45;&gt;59 -->
<g id="edge35" class="edge" data-name="74-&gt;59">

<path fill="none" stroke="black" d="M403.69,-628.24C403.69,-620.98 403.69,-612.59 403.69,-604.59" style=""/>
<polygon fill="black" stroke="black" points="407.19,-604.83 403.69,-594.83 400.19,-604.83 407.19,-604.83" style=""/>
</g>
<!-- 79 -->
<g id="node37" class="node" pointer-events="visible" data-name="79">

<ellipse fill="#9370db" stroke="black" cx="505.69" cy="-572.06" rx="20.89" ry="20.89" style=""/>
<text text-anchor="middle" x="505.69" y="-567.86" font-family="Times,serif" font-size="14.00">79</text>
</g>
<!-- 74&#45;&gt;79 -->
<g id="edge36" class="edge" data-name="74-&gt;79">

<path fill="none" stroke="black" d="M420.08,-636.33C436.19,-624.42 461.03,-606.07 479.82,-592.18" style=""/>
<polygon fill="black" stroke="black" points="481.83,-595.05 487.79,-586.29 477.67,-589.42 481.83,-595.05" style=""/>
</g>
<!-- 10 -->
<g id="node11" class="node" pointer-events="visible" data-name="10">

<ellipse fill="#9370db" stroke="black" cx="79.69" cy="-494.67" rx="20.89" ry="20.89" style=""/>
<text text-anchor="middle" x="79.69" y="-490.47" font-family="Times,serif" font-size="14.00">10</text>
</g>
<!-- 24&#45;&gt;10 -->
<g id="edge10" class="edge" data-name="24-&gt;10">

<path fill="none" stroke="black" d="M180.59,-559.76C176.38,-557 171.88,-554.07 167.69,-551.37 147.37,-538.26 124.26,-523.65 106.83,-512.68" style=""/>
<polygon fill="black" stroke="black" points="108.89,-509.84 98.56,-507.49 105.17,-515.77 108.89,-509.84" style=""/>
</g>
<!-- 28 -->
<g id="node12" class="node" pointer-events="visible" data-name="28">

<ellipse fill="#9370db" stroke="black" cx="197.69" cy="-494.67" rx="20.89" ry="20.89" style=""/>
<text text-anchor="middle" x="197.69" y="-490.47" font-family="Times,serif" font-size="14.00">28</text>
</g>
<!-- 24&#45;&gt;28 -->
<g id="edge11" class="edge" data-name="24-&gt;28">

<path fill="none" stroke="black" d="M197.69,-550.86C197.69,-543.59 197.69,-535.21 197.69,-527.21" style=""/>
<polygon fill="black" stroke="black" points="201.19,-527.44 197.69,-517.44 194.19,-527.44 201.19,-527.44" style=""/>
</g>
<!-- 41 -->
<g id="node28" class="node" pointer-events="visible" data-name="41">

<ellipse fill="#9370db" stroke="black" cx="256.69" cy="-494.67" rx="20.89" ry="20.89" style=""/>
<text text-anchor="middle" x="256.69" y="-490.47" font-family="Times,serif" font-size="14.00">41</text>
</g>
<!-- 45&#45;&gt;41 -->
<g id="edge27" class="edge" data-name="45-&gt;41">

<path fill="none" stroke="black" d="M256.69,-550.86C256.69,-543.59 256.69,-535.21 256.69,-527.21" style=""/>
<polygon fill="black" stroke="black" points="260.19,-527.44 256.69,-517.44 253.19,-527.44 260.19,-527.44" style=""/>
</g>
<!-- 46 -->
<g id="node29" class="node" pointer-events="visible" data-name="46">

<ellipse fill="#9370db" stroke="black" cx="315.69" cy="-494.67" rx="20.89" ry="20.89" style=""/>
<text text-anchor="middle" x="315.69" y="-490.47" font-family="Times,serif" font-size="14.00">46</text>
</g>
<!-- 45&#45;&gt;46 -->
<g id="edge28" class="edge" data-name="45-&gt;46">

<path fill="none" stroke="black" d="M269.21,-555.07C277.03,-545.08 287.27,-531.99 296.15,-520.65" style=""/>
<polygon fill="black" stroke="black" points="298.86,-522.86 302.27,-512.83 293.35,-518.55 298.86,-522.86" style=""/>
</g>
<!-- 9 -->
<g id="node13" class="node" pointer-events="visible" data-name="9">

<ellipse fill="#9370db" stroke="black" cx="22.69" cy="-412.46" rx="18" ry="18" style=""/>
<text text-anchor="middle" x="22.69" y="-408.26" font-family="Times,serif" font-size="14.00">9</text>
</g>
<!-- 10&#45;&gt;9 -->
<g id="edge12" class="edge" data-name="10-&gt;9">

<path fill="none" stroke="black" d="M67.88,-477.05C59.62,-465.42 48.47,-449.73 39.31,-436.84" style=""/>
<polygon fill="black" stroke="black" points="42.3,-435 33.65,-428.88 36.59,-439.06 42.3,-435" style=""/>
</g>
<!-- 13 -->
<g id="node14" class="node" pointer-events="visible" data-name="13">

<ellipse fill="#9370db" stroke="black" cx="79.69" cy="-412.46" rx="20.89" ry="20.89" style=""/>
<text text-anchor="middle" x="79.69" y="-408.26" font-family="Times,serif" font-size="14.00">13</text>
</g>
<!-- 10&#45;&gt;13 -->
<g id="edge13" class="edge" data-name="10-&gt;13">

<path fill="none" stroke="black" d="M79.69,-473.43C79.69,-464.79 79.69,-454.49 79.69,-444.9" style=""/>
<polygon fill="black" stroke="black" points="83.19,-445.21 79.69,-435.21 76.19,-445.21 83.19,-445.21" style=""/>
</g>
<!-- 27 -->
<g id="node23" class="node" pointer-events="visible" data-name="27">

<ellipse fill="#9370db" stroke="black" cx="138.69" cy="-412.46" rx="20.89" ry="20.89" style=""/>
<text text-anchor="middle" x="138.69" y="-408.26" font-family="Times,serif" font-size="14.00">27</text>
</g>
<!-- 28&#45;&gt;27 -->
<g id="edge22" class="edge" data-name="28-&gt;27">

<path fill="none" stroke="black" d="M185.75,-477.44C177.65,-466.42 166.77,-451.63 157.51,-439.04" style=""/>
<polygon fill="black" stroke="black" points="160.46,-437.14 151.71,-431.16 154.82,-441.29 160.46,-437.14" style=""/>
</g>
<!-- 30 -->
<g id="node24" class="node" pointer-events="visible" data-name="30">

<ellipse fill="#9370db" stroke="black" cx="197.69" cy="-412.46" rx="20.89" ry="20.89" style=""/>
<text text-anchor="middle" x="197.69" y="-408.26" font-family="Times,serif" font-size="14.00">30</text>
</g>
<!-- 28&#45;&gt;30 -->
<g id="edge23" class="edge" data-name="28-&gt;30">

<path fill="none" stroke="black" d="M197.69,-473.43C197.69,-464.79 197.69,-454.49 197.69,-444.9" style=""/>
<polygon fill="black" stroke="black" points="201.19,-445.21 197.69,-435.21 194.19,-445.21 201.19,-445.21" style=""/>
</g>
<!-- 11 -->
<g id="node15" class="node" pointer-events="visible" data-name="11">

<ellipse fill="#9370db" stroke="black" cx="20.69" cy="-330.24" rx="20.89" ry="20.89" style=""/>
<text text-anchor="middle" x="20.69" y="-326.04" font-family="Times,serif" font-size="14.00">11</text>
</g>
<!-- 13&#45;&gt;11 -->
<g id="edge14" class="edge" data-name="13-&gt;11">

<path fill="none" stroke="black" d="M67.75,-395.22C59.65,-384.21 48.77,-369.41 39.51,-356.82" style=""/>
<polygon fill="black" stroke="black" points="42.46,-354.93 33.71,-348.94 36.82,-359.07 42.46,-354.93" style=""/>
</g>
<!-- 17 -->
<g id="node16" class="node" pointer-events="visible" data-name="17">

<ellipse fill="#9370db" stroke="black" cx="79.69" cy="-330.24" rx="20.89" ry="20.89" style=""/>
<text text-anchor="middle" x="79.69" y="-326.04" font-family="Times,serif" font-size="14.00">17</text>
</g>
<!-- 13&#45;&gt;17 -->
<g id="edge15" class="edge" data-name="13-&gt;17">

<path fill="none" stroke="black" d="M79.69,-391.21C79.69,-382.57 79.69,-372.28 79.69,-362.68" style=""/>
<polygon fill="black" stroke="black" points="83.19,-362.99 79.69,-352.99 76.19,-362.99 83.19,-362.99" style=""/>
</g>
<!-- 14 -->
<g id="node17" class="node" pointer-events="visible" data-name="14">

<ellipse fill="#9370db" stroke="black" cx="20.69" cy="-252.85" rx="20.89" ry="20.89" style=""/>
<text text-anchor="middle" x="20.69" y="-248.65" font-family="Times,serif" font-size="14.00">14</text>
</g>
<!-- 17&#45;&gt;14 -->
<g id="edge16" class="edge" data-name="17-&gt;14">

<path fill="none" stroke="black" d="M67.18,-313.25C59.36,-303.26 49.12,-290.18 40.24,-278.83" style=""/>
<polygon fill="black" stroke="black" points="43.04,-276.73 34.12,-271.01 37.53,-281.04 43.04,-276.73" style=""/>
</g>
<!-- 22 -->
<g id="node18" class="node" pointer-events="visible" data-name="22">

<ellipse fill="#9370db" stroke="black" cx="79.69" cy="-252.85" rx="20.89" ry="20.89" style=""/>
<text text-anchor="middle" x="79.69" y="-248.65" font-family="Times,serif" font-size="14.00">22</text>
</g>
<!-- 17&#45;&gt;22 -->
<g id="edge17" class="edge" data-name="17-&gt;22">

<path fill="none" stroke="black" d="M79.69,-309.04C79.69,-301.77 79.69,-293.39 79.69,-285.39" style=""/>
<polygon fill="black" stroke="black" points="83.19,-285.63 79.69,-275.63 76.19,-285.63 83.19,-285.63" style=""/>
</g>
<!-- 15 -->
<g id="node19" class="node" pointer-events="visible" data-name="15">

<ellipse fill="#9370db" stroke="black" cx="20.69" cy="-175.47" rx="20.89" ry="20.89" style=""/>
<text text-anchor="middle" x="20.69" y="-171.27" font-family="Times,serif" font-size="14.00">15</text>
</g>
<!-- 14&#45;&gt;15 -->
<g id="edge18" class="edge" data-name="14-&gt;15">

<path fill="none" stroke="black" d="M20.69,-231.65C20.69,-224.38 20.69,-216 20.69,-208" style=""/>
<polygon fill="black" stroke="black" points="24.19,-208.24 20.69,-198.24 17.19,-208.24 24.19,-208.24" style=""/>
</g>
<!-- 18 -->
<g id="node21" class="node" pointer-events="visible" data-name="18">

<ellipse fill="#9370db" stroke="black" cx="79.69" cy="-175.47" rx="20.89" ry="20.89" style=""/>
<text text-anchor="middle" x="79.69" y="-171.27" font-family="Times,serif" font-size="14.00">18</text>
</g>
<!-- 22&#45;&gt;18 -->
<g id="edge20" class="edge" data-name="22-&gt;18">

<path fill="none" stroke="black" d="M79.69,-231.65C79.69,-224.38 79.69,-216 79.69,-208" style=""/>
<polygon fill="black" stroke="black" points="83.19,-208.24 79.69,-198.24 76.19,-208.24 83.19,-208.24" style=""/>
</g>
<!-- 23 -->
<g id="node22" class="node" pointer-events="visible" data-name="23">

<ellipse fill="#9370db" stroke="black" cx="138.69" cy="-175.47" rx="20.89" ry="20.89" style=""/>
<text text-anchor="middle" x="138.69" y="-171.27" font-family="Times,serif" font-size="14.00">23</text>
</g>
<!-- 22&#45;&gt;23 -->
<g id="edge21" class="edge" data-name="22-&gt;23">

<path fill="none" stroke="black" d="M92.21,-235.87C100.03,-225.87 110.27,-212.79 119.15,-201.44" style=""/>
<polygon fill="black" stroke="black" points="121.86,-203.66 125.27,-193.62 116.35,-199.34 121.86,-203.66" style=""/>
</g>
<!-- 16 -->
<g id="node20" class="node" pointer-events="visible" data-name="16">

<ellipse fill="#9370db" stroke="black" cx="20.69" cy="-98.08" rx="20.89" ry="20.89" style=""/>
<text text-anchor="middle" x="20.69" y="-93.88" font-family="Times,serif" font-size="14.00">16</text>
</g>
<!-- 15&#45;&gt;16 -->
<g id="edge19" class="edge" data-name="15-&gt;16">

<path fill="none" stroke="black" d="M20.69,-154.26C20.69,-147 20.69,-138.62 20.69,-130.61" style=""/>
<polygon fill="black" stroke="black" points="24.19,-130.85 20.69,-120.85 17.19,-130.85 24.19,-130.85" style=""/>
</g>
<!-- 25 -->
<g id="node25" class="node" pointer-events="visible" data-name="25">

<ellipse fill="#9370db" stroke="black" cx="138.69" cy="-330.24" rx="20.89" ry="20.89" style=""/>
<text text-anchor="middle" x="138.69" y="-326.04" font-family="Times,serif" font-size="14.00">25</text>
</g>
<!-- 27&#45;&gt;25 -->
<g id="edge24" class="edge" data-name="27-&gt;25">

<path fill="none" stroke="black" d="M138.69,-391.21C138.69,-382.57 138.69,-372.28 138.69,-362.68" style=""/>
<polygon fill="black" stroke="black" points="142.19,-362.99 138.69,-352.99 135.19,-362.99 142.19,-362.99" style=""/>
</g>
<!-- 29 -->
<g id="node27" class="node" pointer-events="visible" data-name="29">

<ellipse fill="#9370db" stroke="black" cx="197.69" cy="-330.24" rx="20.89" ry="20.89" style=""/>
<text text-anchor="middle" x="197.69" y="-326.04" font-family="Times,serif" font-size="14.00">29</text>
</g>
<!-- 30&#45;&gt;29 -->
<g id="edge26" class="edge" data-name="30-&gt;29">

<path fill="none" stroke="black" d="M197.69,-391.21C197.69,-382.57 197.69,-372.28 197.69,-362.68" style=""/>
<polygon fill="black" stroke="black" points="201.19,-362.99 197.69,-352.99 194.19,-362.99 201.19,-362.99" style=""/>
</g>
<!-- 26 -->
<g id="node26" class="node" pointer-events="visible" data-name="26">

<ellipse fill="#9370db" stroke="black" cx="138.69" cy="-252.85" rx="20.89" ry="20.89" style=""/>
<text text-anchor="middle" x="138.69" y="-248.65" font-family="Times,serif" font-size="14.00">26</text>
</g>
<!-- 25&#45;&gt;26 -->
<g id="edge25" class="edge" data-name="25-&gt;26">

<path fill="none" stroke="black" d="M138.69,-309.04C138.69,-301.77 138.69,-293.39 138.69,-285.39" style=""/>
<polygon fill="black" stroke="black" points="142.19,-285.63 138.69,-275.63 135.19,-285.63 142.19,-285.63" style=""/>
</g>
<!-- 34 -->
<g id="node30" class="node" pointer-events="visible" data-name="34">

<ellipse fill="#9370db" stroke="black" cx="256.69" cy="-412.46" rx="20.89" ry="20.89" style=""/>
<text text-anchor="middle" x="256.69" y="-408.26" font-family="Times,serif" font-size="14.00">34</text>
</g>
<!-- 41&#45;&gt;34 -->
<g id="edge29" class="edge" data-name="41-&gt;34">

<path fill="none" stroke="black" d="M256.69,-473.43C256.69,-464.79 256.69,-454.49 256.69,-444.9" style=""/>
<polygon fill="black" stroke="black" points="260.19,-445.21 256.69,-435.21 253.19,-445.21 260.19,-445.21" style=""/>
</g>
<!-- 43 -->
<g id="node31" class="node" pointer-events="visible" data-name="43">

<ellipse fill="#9370db" stroke="black" cx="315.69" cy="-412.46" rx="20.89" ry="20.89" style=""/>
<text text-anchor="middle" x="315.69" y="-408.26" font-family="Times,serif" font-size="14.00">43</text>
</g>
<!-- 41&#45;&gt;43 -->
<g id="edge30" class="edge" data-name="41-&gt;43">

<path fill="none" stroke="black" d="M268.63,-477.44C276.74,-466.42 287.62,-451.63 296.88,-439.04" style=""/>
<polygon fill="black" stroke="black" points="299.57,-441.29 302.67,-431.16 293.93,-437.14 299.57,-441.29" style=""/>
</g>
<!-- 36 -->
<g id="node32" class="node" pointer-events="visible" data-name="36">

<ellipse fill="#9370db" stroke="black" cx="256.69" cy="-330.24" rx="20.89" ry="20.89" style=""/>
<text text-anchor="middle" x="256.69" y="-326.04" font-family="Times,serif" font-size="14.00">36</text>
</g>
<!-- 34&#45;&gt;36 -->
<g id="edge31" class="edge" data-name="34-&gt;36">

<path fill="none" stroke="black" d="M256.69,-391.21C256.69,-382.57 256.69,-372.28 256.69,-362.68" style=""/>
<polygon fill="black" stroke="black" points="260.19,-362.99 256.69,-352.99 253.19,-362.99 260.19,-362.99" style=""/>
</g>
<!-- 37 -->
<g id="node33" class="node" pointer-events="visible" data-name="37">

<ellipse fill="#9370db" stroke="black" cx="256.69" cy="-252.85" rx="20.89" ry="20.89" style=""/>
<text text-anchor="middle" x="256.69" y="-248.65" font-family="Times,serif" font-size="14.00">37</text>
</g>
<!-- 36&#45;&gt;37 -->
<g id="edge32" class="edge" data-name="36-&gt;37">

<path fill="none" stroke="black" d="M256.69,-309.04C256.69,-301.77 256.69,-293.39 256.69,-285.39" style=""/>
<polygon fill="black" stroke="black" points="260.19,-285.63 256.69,-275.63 253.19,-285.63 260.19,-285.63" style=""/>
</g>
<!-- 38 -->
<g id="node34" class="node" pointer-events="visible" data-name="38">

<ellipse fill="#9370db" stroke="black" cx="256.69" cy="-175.47" rx="20.89" ry="20.89" style=""/>
<text text-anchor="middle" x="256.69" y="-171.27" font-family="Times,serif" font-size="14.00">38</text>
</g>
<!-- 37&#45;&gt;38 -->
<g id="edge33" class="edge" data-name="37-&gt;38">

<path fill="none" stroke="black" d="M256.69,-231.65C256.69,-224.38 256.69,-216 256.69,-208" style=""/>
<polygon fill="black" stroke="black" points="260.19,-208.24 256.69,-198.24 253.19,-208.24 260.19,-208.24" style=""/>
</g>
<!-- 39 -->
<g id="node35" class="node" pointer-events="visible" data-name="39">

<ellipse fill="#9370db" stroke="black" cx="256.69" cy="-98.08" rx="20.89" ry="20.89" style=""/>
<text text-anchor="middle" x="256.69" y="-93.88" font-family="Times,serif" font-size="14.00">39</text>
</g>
<!-- 38&#45;&gt;39 -->
<g id="edge34" class="edge" data-name="38-&gt;39">

<path fill="none" stroke="black" d="M256.69,-154.26C256.69,-147 256.69,-138.62 256.69,-130.61" style=""/>
<polygon fill="black" stroke="black" points="260.19,-130.85 256.69,-120.85 253.19,-130.85 260.19,-130.85" style=""/>
</g>
<!-- 58 -->
<g id="node38" class="node" pointer-events="visible" data-name="58">

<ellipse fill="#9370db" stroke="black" cx="374.69" cy="-494.67" rx="20.89" ry="20.89" style=""/>
<text text-anchor="middle" x="374.69" y="-490.47" font-family="Times,serif" font-size="14.00">58</text>
</g>
<!-- 59&#45;&gt;58 -->
<g id="edge37" class="edge" data-name="59-&gt;58">

<path fill="none" stroke="black" d="M396.38,-552.04C393.25,-543.91 389.53,-534.24 386.06,-525.22" style=""/>
<polygon fill="black" stroke="black" points="389.41,-524.18 382.55,-516.1 382.88,-526.69 389.41,-524.18" style=""/>
</g>
<!-- 73 -->
<g id="node39" class="node" pointer-events="visible" data-name="73">

<ellipse fill="#9370db" stroke="black" cx="433.69" cy="-494.67" rx="20.89" ry="20.89" style=""/>
<text text-anchor="middle" x="433.69" y="-490.47" font-family="Times,serif" font-size="14.00">73</text>
</g>
<!-- 59&#45;&gt;73 -->
<g id="edge38" class="edge" data-name="59-&gt;73">

<path fill="none" stroke="black" d="M411.11,-552.42C414.37,-544.24 418.27,-534.43 421.91,-525.29" style=""/>
<polygon fill="black" stroke="black" points="425.15,-526.61 425.6,-516.02 418.65,-524.02 425.15,-526.61" style=""/>
</g>
<!-- 78 -->
<g id="node50" class="node" pointer-events="visible" data-name="78">

<ellipse fill="#9370db" stroke="black" cx="505.69" cy="-494.67" rx="20.89" ry="20.89" style=""/>
<text text-anchor="middle" x="505.69" y="-490.47" font-family="Times,serif" font-size="14.00">78</text>
</g>
<!-- 79&#45;&gt;78 -->
<g id="edge49" class="edge" data-name="79-&gt;78">

<path fill="none" stroke="black" d="M505.69,-550.86C505.69,-543.59 505.69,-535.21 505.69,-527.21" style=""/>
<polygon fill="black" stroke="black" points="509.19,-527.44 505.69,-517.44 502.19,-527.44 509.19,-527.44" style=""/>
</g>
<!-- 93 -->
<g id="node51" class="node" pointer-events="visible" data-name="93">

<ellipse fill="#9370db" stroke="black" cx="571.69" cy="-494.67" rx="20.89" ry="20.89" style=""/>
<text text-anchor="middle" x="571.69" y="-490.47" font-family="Times,serif" font-size="14.00">93</text>
</g>
<!-- 79&#45;&gt;93 -->
<g id="edge50" class="edge" data-name="79-&gt;93">

<path fill="none" stroke="black" d="M519.05,-555.8C528.11,-545.45 540.29,-531.54 550.65,-519.71" style=""/>
<polygon fill="black" stroke="black" points="553.18,-522.13 557.13,-512.3 547.91,-517.52 553.18,-522.13" style=""/>
</g>
<!-- 54 -->
<g id="node40" class="node" pointer-events="visible" data-name="54">

<ellipse fill="#9370db" stroke="black" cx="374.69" cy="-412.46" rx="20.89" ry="20.89" style=""/>
<text text-anchor="middle" x="374.69" y="-408.26" font-family="Times,serif" font-size="14.00">54</text>
</g>
<!-- 58&#45;&gt;54 -->
<g id="edge39" class="edge" data-name="58-&gt;54">

<path fill="none" stroke="black" d="M374.69,-473.43C374.69,-464.79 374.69,-454.49 374.69,-444.9" style=""/>
<polygon fill="black" stroke="black" points="378.19,-445.21 374.69,-435.21 371.19,-445.21 378.19,-445.21" style=""/>
</g>
<!-- 66 -->
<g id="node43" class="node" pointer-events="visible" data-name="66">

<ellipse fill="#9370db" stroke="black" cx="433.69" cy="-412.46" rx="20.89" ry="20.89" style=""/>
<text text-anchor="middle" x="433.69" y="-408.26" font-family="Times,serif" font-size="14.00">66</text>
</g>
<!-- 73&#45;&gt;66 -->
<g id="edge42" class="edge" data-name="73-&gt;66">

<path fill="none" stroke="black" d="M433.69,-473.43C433.69,-464.79 433.69,-454.49 433.69,-444.9" style=""/>
<polygon fill="black" stroke="black" points="437.19,-445.21 433.69,-435.21 430.19,-445.21 437.19,-445.21" style=""/>
</g>
<!-- 52 -->
<g id="node41" class="node" pointer-events="visible" data-name="52">

<ellipse fill="#9370db" stroke="black" cx="370.69" cy="-330.24" rx="20.89" ry="20.89" style=""/>
<text text-anchor="middle" x="370.69" y="-326.04" font-family="Times,serif" font-size="14.00">52</text>
</g>
<!-- 54&#45;&gt;52 -->
<g id="edge40" class="edge" data-name="54-&gt;52">

<path fill="none" stroke="black" d="M373.68,-391.21C373.25,-382.57 372.74,-372.28 372.26,-362.68" style=""/>
<polygon fill="black" stroke="black" points="375.77,-362.8 371.78,-352.99 368.78,-363.15 375.77,-362.8" style=""/>
</g>
<!-- 53 -->
<g id="node42" class="node" pointer-events="visible" data-name="53">

<ellipse fill="#9370db" stroke="black" cx="370.69" cy="-252.85" rx="20.89" ry="20.89" style=""/>
<text text-anchor="middle" x="370.69" y="-248.65" font-family="Times,serif" font-size="14.00">53</text>
</g>
<!-- 52&#45;&gt;53 -->
<g id="edge41" class="edge" data-name="52-&gt;53">

<path fill="none" stroke="black" d="M370.69,-309.04C370.69,-301.77 370.69,-293.39 370.69,-285.39" style=""/>
<polygon fill="black" stroke="black" points="374.19,-285.63 370.69,-275.63 367.19,-285.63 374.19,-285.63" style=""/>
</g>
<!-- 61 -->
<g id="node44" class="node" pointer-events="visible" data-name="61">

<ellipse fill="#9370db" stroke="black" cx="429.69" cy="-330.24" rx="20.89" ry="20.89" style=""/>
<text text-anchor="middle" x="429.69" y="-326.04" font-family="Times,serif" font-size="14.00">61</text>
</g>
<!-- 66&#45;&gt;61 -->
<g id="edge43" class="edge" data-name="66-&gt;61">

<path fill="none" stroke="black" d="M432.68,-391.21C432.25,-382.57 431.74,-372.28 431.26,-362.68" style=""/>
<polygon fill="black" stroke="black" points="434.77,-362.8 430.78,-352.99 427.78,-363.15 434.77,-362.8" style=""/>
</g>
<!-- 70 -->
<g id="node45" class="node" pointer-events="visible" data-name="70">

<ellipse fill="#9370db" stroke="black" cx="488.69" cy="-330.24" rx="20.89" ry="20.89" style=""/>
<text text-anchor="middle" x="488.69" y="-326.04" font-family="Times,serif" font-size="14.00">70</text>
</g>
<!-- 66&#45;&gt;70 -->
<g id="edge44" class="edge" data-name="66-&gt;70">

<path fill="none" stroke="black" d="M445.09,-394.84C452.49,-384.05 462.29,-369.75 470.72,-357.45" style=""/>
<polygon fill="black" stroke="black" points="473.5,-359.59 476.27,-349.36 467.73,-355.63 473.5,-359.59" style=""/>
</g>
<!-- 64 -->
<g id="node46" class="node" pointer-events="visible" data-name="64">

<ellipse fill="#9370db" stroke="black" cx="429.69" cy="-252.85" rx="20.89" ry="20.89" style=""/>
<text text-anchor="middle" x="429.69" y="-248.65" font-family="Times,serif" font-size="14.00">64</text>
</g>
<!-- 61&#45;&gt;64 -->
<g id="edge45" class="edge" data-name="61-&gt;64">

<path fill="none" stroke="black" d="M429.69,-309.04C429.69,-301.77 429.69,-293.39 429.69,-285.39" style=""/>
<polygon fill="black" stroke="black" points="433.19,-285.63 429.69,-275.63 426.19,-285.63 433.19,-285.63" style=""/>
</g>
<!-- 68 -->
<g id="node47" class="node" pointer-events="visible" data-name="68">

<ellipse fill="#9370db" stroke="black" cx="488.69" cy="-252.85" rx="20.89" ry="20.89" style=""/>
<text text-anchor="middle" x="488.69" y="-248.65" font-family="Times,serif" font-size="14.00">68</text>
</g>
<!-- 70&#45;&gt;68 -->
<g id="edge46" class="edge" data-name="70-&gt;68">

<path fill="none" stroke="black" d="M488.69,-309.04C488.69,-301.77 488.69,-293.39 488.69,-285.39" style=""/>
<polygon fill="black" stroke="black" points="492.19,-285.63 488.69,-275.63 485.19,-285.63 492.19,-285.63" style=""/>
</g>
<!-- 67 -->
<g id="node48" class="node" pointer-events="visible" data-name="67">

<ellipse fill="#9370db" stroke="black" cx="429.69" cy="-175.47" rx="20.89" ry="20.89" style=""/>
<text text-anchor="middle" x="429.69" y="-171.27" font-family="Times,serif" font-size="14.00">67</text>
</g>
<!-- 68&#45;&gt;67 -->
<g id="edge47" class="edge" data-name="68-&gt;67">

<path fill="none" stroke="black" d="M476.18,-235.87C468.36,-225.87 458.12,-212.79 449.24,-201.44" style=""/>
<polygon fill="black" stroke="black" points="452.04,-199.34 443.12,-193.62 446.53,-203.66 452.04,-199.34" style=""/>
</g>
<!-- 69 -->
<g id="node49" class="node" pointer-events="visible" data-name="69">

<ellipse fill="#9370db" stroke="black" cx="488.69" cy="-175.47" rx="20.89" ry="20.89" style=""/>
<text text-anchor="middle" x="488.69" y="-171.27" font-family="Times,serif" font-size="14.00">69</text>
</g>
<!-- 68&#45;&gt;69 -->
<g id="edge48" class="edge" data-name="68-&gt;69">

<path fill="none" stroke="black" d="M488.69,-231.65C488.69,-224.38 488.69,-216 488.69,-208" style=""/>
<polygon fill="black" stroke="black" points="492.19,-208.24 488.69,-198.24 485.19,-208.24 492.19,-208.24" style=""/>
</g>
<!-- 88 -->
<g id="node52" class="node" pointer-events="visible" data-name="88">

<ellipse fill="#9370db" stroke="black" cx="571.69" cy="-412.46" rx="20.89" ry="20.89" style=""/>
<text text-anchor="middle" x="571.69" y="-408.26" font-family="Times,serif" font-size="14.00">88</text>
</g>
<!-- 93&#45;&gt;88 -->
<g id="edge51" class="edge" data-name="93-&gt;88">

<path fill="none" stroke="black" d="M571.69,-473.43C571.69,-464.79 571.69,-454.49 571.69,-444.9" style=""/>
<polygon fill="black" stroke="black" points="575.19,-445.21 571.69,-435.21 568.19,-445.21 575.19,-445.21" style=""/>
</g>
<!-- 100 -->
<g id="node53" class="node" pointer-events="visible" data-name="100">

<ellipse fill="#9370db" stroke="black" cx="662.69" cy="-412.46" rx="25.54" ry="25.54" style=""/>
<text text-anchor="middle" x="662.69" y="-408.26" font-family="Times,serif" font-size="14.00">100</text>
</g>
<!-- 93&#45;&gt;100 -->
<g id="edge52" class="edge" data-name="93-&gt;100">

<path fill="none" stroke="black" d="M587.13,-480.06C600.31,-468.45 619.58,-451.46 635.36,-437.55" style=""/>
<polygon fill="black" stroke="black" points="637.38,-440.43 642.57,-431.2 632.75,-435.18 637.38,-440.43" style=""/>
</g>
<!-- 80 -->
<g id="node54" class="node" pointer-events="visible" data-name="80">

<ellipse fill="#9370db" stroke="black" cx="547.69" cy="-330.24" rx="20.89" ry="20.89" style=""/>
<text text-anchor="middle" x="547.69" y="-326.04" font-family="Times,serif" font-size="14.00">80</text>
</g>
<!-- 88&#45;&gt;80 -->
<g id="edge53" class="edge" data-name="88-&gt;80">

<path fill="none" stroke="black" d="M565.88,-392.04C563.16,-382.94 559.86,-371.89 556.81,-361.72" style=""/>
<polygon fill="black" stroke="black" points="560.19,-360.79 553.97,-352.21 553.48,-362.79 560.19,-360.79" style=""/>
</g>
<!-- 92 -->
<g id="node55" class="node" pointer-events="visible" data-name="92">

<ellipse fill="#9370db" stroke="black" cx="606.69" cy="-330.24" rx="20.89" ry="20.89" style=""/>
<text text-anchor="middle" x="606.69" y="-326.04" font-family="Times,serif" font-size="14.00">92</text>
</g>
<!-- 88&#45;&gt;92 -->
<g id="edge54" class="edge" data-name="88-&gt;92">

<path fill="none" stroke="black" d="M579.81,-392.85C584.05,-383.13 589.34,-371.02 594.09,-360.12" style=""/>
<polygon fill="black" stroke="black" points="597.22,-361.7 598.01,-351.13 590.81,-358.9 597.22,-361.7" style=""/>
</g>
<!-- 98 -->
<g id="node61" class="node" pointer-events="visible" data-name="98">

<ellipse fill="#9370db" stroke="black" cx="665.69" cy="-330.24" rx="20.89" ry="20.89" style=""/>
<text text-anchor="middle" x="665.69" y="-326.04" font-family="Times,serif" font-size="14.00">98</text>
</g>
<!-- 100&#45;&gt;98 -->
<g id="edge60" class="edge" data-name="100-&gt;98">

<path fill="none" stroke="black" d="M663.63,-386.52C663.9,-379.06 664.21,-370.79 664.51,-362.97" style=""/>
<polygon fill="black" stroke="black" points="668,-363.23 664.88,-353.11 661,-362.97 668,-363.23" style=""/>
</g>
<!-- 86 -->
<g id="node56" class="node" pointer-events="visible" data-name="86">

<ellipse fill="#9370db" stroke="black" cx="547.69" cy="-252.85" rx="20.89" ry="20.89" style=""/>
<text text-anchor="middle" x="547.69" y="-248.65" font-family="Times,serif" font-size="14.00">86</text>
</g>
<!-- 80&#45;&gt;86 -->
<g id="edge55" class="edge" data-name="80-&gt;86">

<path fill="none" stroke="black" d="M547.69,-309.04C547.69,-301.77 547.69,-293.39 547.69,-285.39" style=""/>
<polygon fill="black" stroke="black" points="551.19,-285.63 547.69,-275.63 544.19,-285.63 551.19,-285.63" style=""/>
</g>
<!-- 91 -->
<g id="node59" class="node" pointer-events="visible" data-name="91">

<ellipse fill="#9370db" stroke="black" cx="606.69" cy="-252.85" rx="20.89" ry="20.89" style=""/>
<text text-anchor="middle" x="606.69" y="-248.65" font-family="Times,serif" font-size="14.00">91</text>
</g>
<!-- 92&#45;&gt;91 -->
<g id="edge58" class="edge" data-name="92-&gt;91">

<path fill="none" stroke="black" d="M606.69,-309.04C606.69,-301.77 606.69,-293.39 606.69,-285.39" style=""/>
<polygon fill="black" stroke="black" points="610.19,-285.63 606.69,-275.63 603.19,-285.63 610.19,-285.63" style=""/>
</g>
<!-- 82 -->
<g id="node57" class="node" pointer-events="visible" data-name="82">

<ellipse fill="#9370db" stroke="black" cx="547.69" cy="-175.47" rx="20.89" ry="20.89" style=""/>
<text text-anchor="middle" x="547.69" y="-171.27" font-family="Times,serif" font-size="14.00">82</text>
</g>
<!-- 86&#45;&gt;82 -->
<g id="edge56" class="edge" data-name="86-&gt;82">

<path fill="none" stroke="black" d="M547.69,-231.65C547.69,-224.38 547.69,-216 547.69,-208" style=""/>
<polygon fill="black" stroke="black" points="551.19,-208.24 547.69,-198.24 544.19,-208.24 551.19,-208.24" style=""/>
</g>
<!-- 83 -->
<g id="node58" class="node" pointer-events="visible" data-name="83">

<ellipse fill="#9370db" stroke="black" cx="547.69" cy="-98.08" rx="20.89" ry="20.89" style=""/>
<text text-anchor="middle" x="547.69" y="-93.88" font-family="Times,serif" font-size="14.00">83</text>
</g>
<!-- 82&#45;&gt;83 -->
<g id="edge57" class="edge" data-name="82-&gt;83">

<path fill="none" stroke="black" d="M547.69,-154.26C547.69,-147 547.69,-138.62 547.69,-130.61" style=""/>
<polygon fill="black" stroke="black" points="551.19,-130.85 547.69,-120.85 544.19,-130.85 551.19,-130.85" style=""/>
</g>
<!-- 89 -->
<g id="node60" class="node" pointer-events="visible" data-name="89">

<ellipse fill="#9370db" stroke="black" cx="606.69" cy="-175.47" rx="20.89" ry="20.89" style=""/>
<text text-anchor="middle" x="606.69" y="-171.27" font-family="Times,serif" font-size="14.00">89</text>
</g>
<!-- 91&#45;&gt;89 -->
<g id="edge59" class="edge" data-name="91-&gt;89">

<path fill="none" stroke="black" d="M606.69,-231.65C606.69,-224.38 606.69,-216 606.69,-208" style=""/>
<polygon fill="black" stroke="black" points="610.19,-208.24 606.69,-198.24 603.19,-208.24 610.19,-208.24" style=""/>
</g>
<!-- 94 -->
<g id="node62" class="node" pointer-events="visible" data-name="94">

<ellipse fill="#9370db" stroke="black" cx="665.69" cy="-252.85" rx="20.89" ry="20.89" style=""/>
<text text-anchor="middle" x="665.69" y="-248.65" font-family="Times,serif" font-size="14.00">94</text>
</g>
<!-- 98&#45;&gt;94 -->
<g id="edge61" class="edge" data-name="98-&gt;94">

<path fill="none" stroke="black" d="M665.69,-309.04C665.69,-301.77 665.69,-293.39 665.69,-285.39" style=""/>
<polygon fill="black" stroke="black" points="669.19,-285.63 665.69,-275.63 662.19,-285.63 669.19,-285.63" style=""/>
</g>
<!-- 99 -->
<g id="node63" class="node" pointer-events="visible" data-name="99">

<ellipse fill="#9370db" stroke="black" cx="724.69" cy="-252.85" rx="20.89" ry="20.89" style=""/>
<text text-anchor="middle" x="724.69" y="-248.65" font-family="Times,serif" font-size="14.00">99</text>
</g>
<!-- 98&#45;&gt;99 -->
<g id="edge62" class="edge" data-name="98-&gt;99">

<path fill="none" stroke="black" d="M678.21,-313.25C686.03,-303.26 696.27,-290.18 705.15,-278.83" style=""/>
<polygon fill="black" stroke="black" points="707.86,-281.04 711.27,-271.01 702.35,-276.73 707.86,-281.04" style=""/>
</g>
<!-- 95 -->
<g id="node64" class="node" pointer-events="visible" data-name="95">

<ellipse fill="#9370db" stroke="black" cx="665.69" cy="-175.47" rx="20.89" ry="20.89" style=""/>
<text text-anchor="middle" x="665.69" y="-171.27" font-family="Times,serif" font-size="14.00">95</text>
</g>
<!-- 94&#45;&gt;95 -->
<g id="edge63" class="edge" data-name="94-&gt;95">

<path fill="none" stroke="black" d="M665.69,-231.65C665.69,-224.38 665.69,-216 665.69,-208" style=""/>
<polygon fill="black" stroke="black" points="669.19,-208.24 665.69,-198.24 662.19,-208.24 669.19,-208.24" style=""/>
</g>
<!-- 97 -->
<g id="node65" class="node" pointer-events="visible" data-name="97">

<ellipse fill="#9370db" stroke="black" cx="665.69" cy="-98.08" rx="20.89" ry="20.89" style=""/>
<text text-anchor="middle" x="665.69" y="-93.88" font-family="Times,serif" font-size="14.00">97</text>
</g>
<!-- 95&#45;&gt;97 -->
<g id="edge64" class="edge" data-name="95-&gt;97">

<path fill="none" stroke="black" d="M665.69,-154.26C665.69,-147 665.69,-138.62 665.69,-130.61" style=""/>
<polygon fill="black" stroke="black" points="669.19,-130.85 665.69,-120.85 662.19,-130.85 669.19,-130.85" style=""/>
</g>
<!-- 96 -->
<g id="node66" class="node" pointer-events="visible" data-name="96">

<ellipse fill="#9370db" stroke="black" cx="665.69" cy="-20.69" rx="20.89" ry="20.89" style=""/>
<text text-anchor="middle" x="665.69" y="-16.49" font-family="Times,serif" font-size="14.00">96</text>
</g>
<!-- 97&#45;&gt;96 -->
<g id="edge65" class="edge" data-name="97-&gt;96">

<path fill="none" stroke="black" d="M665.69,-76.88C665.69,-69.61 665.69,-61.23 665.69,-53.23" style=""/>
<polygon fill="black" stroke="black" points="669.19,-53.47 665.69,-43.47 662.19,-53.47 669.19,-53.47" style=""/>
</g>
</g>
</svg>